#N canvas 1565 612 705 594 12;
#X obj 146 355 phasor~;
#X obj 302 480 *~;
#X obj 380 385 line~;
#X obj 166 13 r trig;
#X msg 398 196 \$1 1;
#X obj 254 168 line~;
#X msg 388 156 1;
#X msg 127 145 0;
#X obj 296 545 dac~ 1 2;
#X obj 161 409 vcf~ 20, f 19;
#X obj 251 205 *~;
#X msg 299 127 0;
#X obj 245 242 *~ -1;
#X obj 245 267 +~ 1;
#X obj 245 292 *~ 200;
#X obj 245 317 +~ 400;
#X obj 241 370 *~ 3;
#X obj 121 116 del 350;
#X obj 418 42 r dur;
#X obj 189 118 pack 1 350;
#X obj 183 51 t b b b b b, f 24;
#X obj 439 119 random 101;
#X obj 439 144 + 200;
#X connect 0 0 9 0;
#X connect 1 0 8 0;
#X connect 1 0 8 1;
#X connect 2 0 1 1;
#X connect 3 0 20 0;
#X connect 4 0 2 0;
#X connect 5 0 10 0;
#X connect 5 0 10 1;
#X connect 6 0 4 0;
#X connect 7 0 4 0;
#X connect 9 1 1 0;
#X connect 10 0 12 0;
#X connect 11 0 5 0;
#X connect 12 0 13 0;
#X connect 13 0 14 0;
#X connect 14 0 15 0;
#X connect 15 0 0 0;
#X connect 15 0 16 0;
#X connect 16 0 9 1;
#X connect 17 0 7 0;
#X connect 18 0 19 1;
#X connect 18 0 17 1;
#X connect 19 0 5 0;
#X connect 20 0 17 0;
#X connect 20 1 19 0;
#X connect 20 2 11 0;
#X connect 20 3 6 0;
#X connect 20 4 21 0;
#X connect 21 0 22 0;
#X connect 22 0 14 1;
